<svg width="69" height="62" viewBox="0 0 69 62" fill="none" xmlns="http://www.w3.org/2000/svg">
<g clip-path="url(#clip0_53_170)">
<path d="M42.8723 9.14619H37.487C37.1669 9.14619 36.8599 9.01903 36.6335 8.79268C36.4072 8.56634 36.28 8.25935 36.28 7.93925C36.28 7.61915 36.4072 7.31216 36.6335 7.08581C36.8599 6.85946 37.1669 6.7323 37.487 6.7323H42.538L48.9843 2.87009C49.1202 2.78854 49.2709 2.73456 49.4276 2.71123C49.5844 2.68791 49.7442 2.69568 49.898 2.73413C50.0518 2.77257 50.1965 2.84092 50.3238 2.93528C50.4512 3.02964 50.5587 3.14816 50.6402 3.28407C50.7218 3.41998 50.7758 3.57063 50.7991 3.7274C50.8224 3.88417 50.8146 4.044 50.7762 4.19777C50.7378 4.35154 50.6694 4.49623 50.575 4.62358C50.4807 4.75093 50.3622 4.85845 50.2262 4.94L43.4939 8.9748C43.3061 9.08724 43.0912 9.14649 42.8723 9.14619Z" fill="#5F7CF9"/>
<path d="M52.2986 7.80046C51.527 7.80069 50.7727 7.57212 50.1311 7.14363C49.4894 6.71515 48.9892 6.10601 48.6938 5.39324C48.3984 4.68048 48.3209 3.89611 48.4713 3.13934C48.6217 2.38258 48.9931 1.6874 49.5386 1.14174C50.0841 0.596074 50.7792 0.224435 51.5359 0.0738229C52.2926 -0.0767896 53.077 0.000389444 53.7899 0.295599C54.5027 0.590809 55.112 1.09079 55.5407 1.7323C55.9694 2.37382 56.1982 3.12805 56.1982 3.89962C56.1972 4.93368 55.7861 5.92514 55.055 6.65644C54.324 7.38775 53.3326 7.79918 52.2986 7.80046ZM52.2986 2.41387C52.0044 2.41363 51.7167 2.50067 51.472 2.66397C51.2273 2.82726 51.0365 3.05948 50.9238 3.33124C50.8111 3.60299 50.7816 3.90207 50.8389 4.19062C50.8963 4.47917 51.0379 4.74423 51.2459 4.95226C51.454 5.16029 51.719 5.30193 52.0076 5.35927C52.2961 5.4166 52.5952 5.38705 52.867 5.27436C53.1387 5.16167 53.3709 4.97089 53.5342 4.72618C53.6975 4.48147 53.7845 4.19381 53.7843 3.89962C53.784 3.50567 53.6274 3.12795 53.3488 2.84939C53.0702 2.57083 52.6925 2.41419 52.2986 2.41387ZM45.5662 23.9578H37.487C37.1669 23.9578 36.8599 23.8306 36.6335 23.6043C36.4072 23.3779 36.28 23.071 36.28 22.7509C36.28 22.4308 36.4072 22.1238 36.6335 21.8974C36.8599 21.6711 37.1669 21.5439 37.487 21.5439H45.5662C45.8863 21.5439 46.1933 21.6711 46.4197 21.8974C46.646 22.1238 46.7732 22.4308 46.7732 22.7509C46.7732 23.071 46.646 23.3779 46.4197 23.6043C46.1933 23.8306 45.8863 23.9578 45.5662 23.9578Z" fill="#5F7CF9"/>
<path d="M48.2589 26.6517C47.4874 26.6519 46.7331 26.4233 46.0914 25.9949C45.4498 25.5664 44.9496 24.9572 44.6542 24.2445C44.3587 23.5317 44.2813 22.7473 44.4317 21.9906C44.5821 21.2338 44.9535 20.5386 45.499 19.993C46.0445 19.4473 46.7395 19.0757 47.4963 18.9251C48.253 18.7744 49.0374 18.8516 49.7502 19.1468C50.4631 19.442 51.0724 19.942 51.5011 20.5835C51.9298 21.225 52.1586 21.9793 52.1586 22.7508C52.1576 23.7849 51.7465 24.7764 51.0154 25.5077C50.2843 26.239 49.293 26.6504 48.2589 26.6517ZM48.2589 21.2651C47.9647 21.2649 47.6771 21.3519 47.4324 21.5152C47.1877 21.6785 46.9969 21.9107 46.8842 22.1825C46.7715 22.4542 46.742 22.7533 46.7993 23.0418C46.8566 23.3304 46.9983 23.5955 47.2063 23.8035C47.4143 24.0115 47.6794 24.1532 47.9679 24.2105C48.2565 24.2678 48.5556 24.2383 48.8273 24.1256C49.0991 24.0129 49.3313 23.8221 49.4946 23.5774C49.6579 23.3327 49.7449 23.045 49.7447 22.7508C49.7444 22.3569 49.5877 21.9792 49.3092 21.7006C49.0306 21.4221 48.6529 21.2654 48.2589 21.2651ZM54.453 32.1046H37.487C37.1669 32.1046 36.8599 31.9775 36.6335 31.7511C36.4072 31.5248 36.28 31.2178 36.28 30.8977C36.28 30.5776 36.4072 30.2706 36.6335 30.0443C36.8599 29.8179 37.1669 29.6908 37.487 29.6908H54.453C54.7731 29.6908 55.0801 29.8179 55.3064 30.0443C55.5327 30.2706 55.6599 30.5776 55.6599 30.8977C55.6599 31.2178 55.5327 31.5248 55.3064 31.7511C55.0801 31.9775 54.7731 32.1046 54.453 32.1046Z" fill="#5F7CF9"/>
<path d="M56.8765 34.5282C56.1585 34.5282 55.4565 34.3153 54.8595 33.9163C54.2625 33.5174 53.7972 32.9504 53.5224 32.287C53.2476 31.6236 53.1757 30.8937 53.3158 30.1894C53.4559 29.4852 53.8016 28.8383 54.3094 28.3306C54.8171 27.8228 55.464 27.4771 56.1682 27.337C56.8725 27.1969 57.6024 27.2688 58.2658 27.5436C58.9292 27.8184 59.4962 28.2837 59.8951 28.8807C60.2941 29.4777 60.507 30.1797 60.507 30.8977C60.506 31.8603 60.1232 32.7831 59.4426 33.4638C58.7619 34.1444 57.8391 34.5272 56.8765 34.5282ZM56.8765 29.6811C56.6359 29.6811 56.4007 29.7525 56.2006 29.8861C56.0005 30.0198 55.8446 30.2098 55.7525 30.4321C55.6604 30.6544 55.6363 30.8991 55.6833 31.1351C55.7302 31.3711 55.8461 31.5878 56.0162 31.758C56.1864 31.9281 56.4032 32.044 56.6392 32.0909C56.8752 32.1379 57.1198 32.1138 57.3421 32.0217C57.5644 31.9296 57.7544 31.7737 57.8881 31.5736C58.0217 31.3735 58.0931 31.1383 58.0931 30.8977C58.0928 30.5751 57.9645 30.2659 57.7364 30.0378C57.5083 29.8097 57.1991 29.6814 56.8765 29.6811ZM53.6455 15.8785H37.487C37.1669 15.8785 36.8599 15.7514 36.6335 15.525C36.4072 15.2987 36.28 14.9917 36.28 14.6716C36.28 14.3515 36.4072 14.0445 36.6335 13.8181C36.8599 13.5918 37.1669 13.4646 37.487 13.4646H53.3607L61.1841 9.55293C61.3259 9.48161 61.4803 9.43891 61.6386 9.42727C61.7968 9.41563 61.9559 9.43528 62.1066 9.48509C62.2572 9.53491 62.3966 9.61392 62.5168 9.71761C62.6369 9.8213 62.7355 9.94764 62.8068 10.0894C62.8781 10.2312 62.9208 10.3856 62.9325 10.5439C62.9441 10.7022 62.9245 10.8612 62.8746 11.0119C62.8248 11.1626 62.7458 11.302 62.6421 11.4221C62.5384 11.5423 62.4121 11.6408 62.2703 11.7121L54.1911 15.7518C54.0216 15.836 53.8348 15.8794 53.6455 15.8785Z" fill="#5F7CF9"/>
<path d="M64.4175 14.5328C63.6459 14.533 62.8915 14.3044 62.2498 13.8759C61.6082 13.4473 61.108 12.8381 60.8126 12.1253C60.5172 11.4125 60.4398 10.628 60.5903 9.87123C60.7408 9.11443 61.1123 8.41926 61.658 7.87364C62.2036 7.32803 62.8988 6.95648 63.6556 6.80601C64.4124 6.65553 65.1968 6.73288 65.9096 7.02828C66.6224 7.32367 67.2317 7.82384 67.6602 8.46551C68.0887 9.10719 68.3173 9.86154 68.3171 10.6332C68.3155 11.6669 67.9041 12.6579 67.1732 13.3888C66.4422 14.1198 65.4512 14.5312 64.4175 14.5328ZM64.4175 9.1462C64.1233 9.14596 63.8357 9.23297 63.591 9.39621C63.3464 9.55946 63.1556 9.7916 63.0429 10.0633C62.9301 10.335 62.9005 10.634 62.9577 10.9225C63.015 11.211 63.1565 11.4761 63.3644 11.6842C63.5723 11.8922 63.8373 12.034 64.1257 12.0914C64.4142 12.1489 64.7132 12.1195 64.985 12.007C65.2568 11.8945 65.4891 11.7039 65.6525 11.4594C65.816 11.2148 65.9032 10.9273 65.9032 10.6332C65.9026 10.2392 65.7459 9.86154 65.4674 9.58285C65.189 9.30417 64.8114 9.14716 64.4175 9.1462ZM49.6095 59.1028C49.3908 59.1028 49.1763 59.0432 48.9891 58.9302L42.5429 55.068H37.487C37.1669 55.068 36.8599 54.9408 36.6335 54.7144C36.4072 54.4881 36.28 54.1811 36.28 53.861C36.28 53.5409 36.4072 53.2339 36.6335 53.0076C36.8599 52.7812 37.1669 52.6541 37.487 52.6541H42.8723C43.0912 52.6538 43.3061 52.713 43.4939 52.8255L50.2262 56.8651C50.4503 57.0015 50.6237 57.2073 50.7204 57.4511C50.8171 57.695 50.8316 57.9637 50.7619 58.2166C50.6922 58.4694 50.5421 58.6927 50.3341 58.8526C50.1262 59.0125 49.8718 59.1003 49.6095 59.1028Z" fill="#5F7CF9"/>
<path d="M52.2986 61.7954C51.527 61.7957 50.7726 61.5671 50.1309 61.1385C49.4893 60.71 48.9891 60.1008 48.6937 59.3879C48.3983 58.6751 48.3209 57.8907 48.4714 57.1339C48.6219 56.3771 48.9934 55.6819 49.5391 55.1363C50.0847 54.5907 50.7798 54.2191 51.5366 54.0686C52.2934 53.9182 53.0779 53.9955 53.7907 54.2909C54.5035 54.5863 55.1128 55.0865 55.5413 55.7281C55.9698 56.3698 56.1984 57.1242 56.1982 57.8958C56.1969 58.9296 55.7857 59.9208 55.0546 60.6518C54.3236 61.3829 53.3324 61.7941 52.2986 61.7954ZM52.2986 56.4088C52.0044 56.4086 51.7168 56.4956 51.4721 56.6588C51.2274 56.8221 51.0367 57.0542 50.9239 57.3259C50.8112 57.5976 50.7816 57.8966 50.8388 58.1851C50.8961 58.4737 51.0376 58.7387 51.2455 58.9468C51.4534 59.1549 51.7184 59.2966 52.0068 59.3541C52.2953 59.4116 52.5943 59.3822 52.8661 59.2697C53.1379 59.1572 53.3702 58.9666 53.5336 58.722C53.6971 58.4775 53.7843 58.1899 53.7843 57.8958C53.784 57.5017 53.6274 57.1239 53.3489 56.8451C53.0703 56.5664 52.6926 56.4095 52.2986 56.4088ZM45.5662 40.2515H37.487C37.1669 40.2515 36.8599 40.1243 36.6335 39.898C36.4072 39.6717 36.28 39.3647 36.28 39.0446C36.28 38.7245 36.4072 38.4175 36.6335 38.1911C36.8599 37.9648 37.1669 37.8376 37.487 37.8376H45.5662C45.8863 37.8376 46.1933 37.9648 46.4197 38.1911C46.646 38.4175 46.7732 38.7245 46.7732 39.0446C46.7732 39.3647 46.646 39.6717 46.4197 39.898C46.1933 40.1243 45.8863 40.2515 45.5662 40.2515Z" fill="#5F7CF9"/>
<path d="M48.2589 42.9442C47.4873 42.9444 46.733 42.7158 46.0913 42.2873C45.4496 41.8588 44.9494 41.2495 44.6541 40.5367C44.3587 39.8239 44.2813 39.0394 44.4318 38.2826C44.5823 37.5258 44.9538 36.8307 45.4994 36.285C46.045 35.7394 46.7402 35.3679 47.497 35.2174C48.2538 35.0669 49.0382 35.1443 49.7511 35.4397C50.4639 35.7351 51.0731 36.2352 51.5017 36.8769C51.9302 37.5186 52.1588 38.2729 52.1586 39.0446C52.1573 40.0784 51.746 41.0696 51.015 41.8006C50.2839 42.5317 49.2928 42.9429 48.2589 42.9442ZM48.2589 37.5576C47.9648 37.5574 47.6772 37.6444 47.4325 37.8076C47.1878 37.9709 46.997 38.203 46.8843 38.4747C46.7716 38.7464 46.742 39.0454 46.7992 39.3339C46.8564 39.6224 46.998 39.8875 47.2059 40.0956C47.4138 40.3036 47.6787 40.4454 47.9672 40.5029C48.2557 40.5603 48.5547 40.531 48.8265 40.4184C49.0983 40.3059 49.3306 40.1154 49.494 39.8708C49.6574 39.6262 49.7447 39.3387 49.7447 39.0446C49.7444 38.6505 49.5878 38.2727 49.3092 37.9939C49.0307 37.7152 48.653 37.5582 48.2589 37.5576ZM61.7236 52.3704C61.5363 52.3702 61.3515 52.3264 61.1841 52.2425L53.3607 48.3308H37.487C37.1669 48.3308 36.8599 48.2036 36.6335 47.9773C36.4072 47.7509 36.28 47.4439 36.28 47.1238C36.28 46.8037 36.4072 46.4967 36.6335 46.2704C36.8599 46.0441 37.1669 45.9169 37.487 45.9169H53.6455C53.8327 45.9169 54.0174 45.9603 54.185 46.0436L62.2643 50.0881C62.5113 50.2077 62.7102 50.4079 62.8282 50.6558C62.9462 50.9036 62.9761 51.1843 62.9131 51.4514C62.8501 51.7186 62.6979 51.9563 62.4817 52.1253C62.2654 52.2944 61.998 52.3846 61.7236 52.3813V52.3704Z" fill="#5F7CF9"/>
</g>
<path d="M6.84668 25.6875C4.05983 26.8992 1.99998 29.686 1.99998 32.9576C1.99998 36.4714 4.30216 39.3794 7.21019 40.3488C6.60435 41.5605 6.24085 42.8933 6.24085 44.2261C6.24085 48.5882 9.75471 52.102 14.1167 52.102C14.9649 52.102 15.8131 51.9809 16.5401 51.7385C17.2671 55.3736 20.4175 58.1604 24.2948 58.1604C28.6568 58.1604 32.1707 54.7677 32.1707 50.4057H32.2919V7.99705C32.1707 5.5737 29.505 2.42334 26.1123 2.42334C23.4466 2.42334 21.1445 4.48319 20.2963 6.90654C19.4481 6.42187 18.4788 6.17953 17.3883 6.17953C13.9956 6.17953 11.2087 8.96639 11.2087 12.3591C11.2087 13.3284 11.451 14.2978 11.8146 15.1459H11.2087C7.81602 15.1459 5.02917 17.9328 5.02917 21.3255C5.02917 23.0218 5.75618 24.597 6.84668 25.6875Z" stroke="#5F7CF9" stroke-width="3" stroke-miterlimit="10" stroke-linecap="round" stroke-linejoin="round"/>
<path d="M20.9022 28.8379C20.9022 28.8379 22.3562 34.1692 17.7518 38.2889C15.5708 40.2276 11.2088 40.8335 7.45256 40.3488M22.5985 18.9021C22.5985 18.9021 19.327 20.962 16.5401 20.1138C13.7533 19.2656 11.8146 15.1459 11.8146 15.1459M25.0219 45.559C25.0219 45.559 23.4467 39.3794 16.1766 39.3794" stroke="#5F7CF9" stroke-width="3" stroke-miterlimit="10" stroke-linecap="round" stroke-linejoin="round"/>
<defs>
<clipPath id="clip0_53_170">
<rect width="61.7954" height="61.7954" fill="white" transform="translate(6.52161)"/>
</clipPath>
</defs>
</svg>
