<svg width="39" height="45" viewBox="0 0 39 45" fill="none" xmlns="http://www.w3.org/2000/svg">
<g clip-path="url(#clip0_53_113)">
<path d="M19.5088 12.3923C13.9722 12.3923 9.50631 16.9011 9.50631 22.491C9.50631 28.0808 13.9722 32.5896 19.5088 32.5896C25.0454 32.5896 29.5112 28.0808 29.5112 22.491C29.5112 16.9011 25.0454 12.3923 19.5088 12.3923ZM19.5088 29.0564C15.9309 29.0564 13.0059 26.1121 13.0059 22.491C13.0059 18.8699 15.9222 15.9255 19.5088 15.9255C23.0954 15.9255 26.0117 18.8699 26.0117 22.491C26.0117 26.1121 23.0867 29.0564 19.5088 29.0564ZM32.2534 11.9792C32.2534 13.2888 31.2088 14.3347 29.9204 14.3347C28.6233 14.3347 27.5873 13.28 27.5873 11.9792C27.5873 10.6785 28.632 9.62378 29.9204 9.62378C31.2088 9.62378 32.2534 10.6785 32.2534 11.9792ZM38.8782 14.3699C38.7302 11.2146 38.0164 8.41968 35.7268 6.11694C33.446 3.81421 30.6777 3.09351 27.5525 2.9353C24.3315 2.75073 14.6773 2.75073 11.4563 2.9353C8.33979 3.08472 5.57149 3.80542 3.28198 6.10815C0.99247 8.41089 0.287336 11.2058 0.13064 14.3611C-0.0521729 17.613 -0.0521729 27.3601 0.13064 30.6121C0.278631 33.7673 0.99247 36.5623 3.28198 38.865C5.57149 41.1677 8.33109 41.8884 11.4563 42.0466C14.6773 42.2312 24.3315 42.2312 27.5525 42.0466C30.6777 41.8972 33.446 41.1765 35.7268 38.865C38.0077 36.5623 38.7215 33.7673 38.8782 30.6121C39.061 27.3601 39.061 17.6218 38.8782 14.3699ZM34.717 34.1013C34.038 35.824 32.7235 37.1511 31.0085 37.8455C28.4405 38.8738 22.3467 38.6365 19.5088 38.6365C16.6708 38.6365 10.5684 38.865 8.00899 37.8455C6.30274 37.1599 4.98823 35.8328 4.30051 34.1013C3.28198 31.5085 3.51702 25.3562 3.51702 22.491C3.51702 19.6257 3.29068 13.4646 4.30051 10.8806C4.97952 9.15796 6.29403 7.83081 8.00899 7.13647C10.5771 6.10815 16.6708 6.34546 19.5088 6.34546C22.3467 6.34546 28.4492 6.11694 31.0085 7.13647C32.7148 7.82202 34.0293 9.14917 34.717 10.8806C35.7356 13.4734 35.5005 19.6257 35.5005 22.491C35.5005 25.3562 35.7356 31.5173 34.717 34.1013Z" fill="#5580E9"/>
</g>
<defs>
<clipPath id="clip0_53_113">
<rect width="39" height="45" fill="white"/>
</clipPath>
</defs>
</svg>
